<svg id="Layer_1" data-name="Layer 1" xmlns="http://www.w3.org/2000/svg" viewBox="0 0 108.03 28.4"><title>logo-la-cosecha-color</title><path d="M18.6,20.34a10.55,10.55,0,0,1-3.8-.67c-4-1.56-4.83-4.93-4.67-6.56A9.71,9.71,0,0,1,13.66,5.6a13,13,0,0,1,9.48-3,4.57,4.57,0,0,1,3.24,1.8,4.72,4.72,0,0,1,.49,3.79l0,.13c-.15.44-1,2.69-2.57,3.41a2.54,2.54,0,0,1-3.46-1.57c-.44-1.59.83-3.31,1-3.5a2.3,2.3,0,0,0,.3-.6h-.2C20.18,6,17,6,15.48,13a3.26,3.26,0,0,0,2,3.3,11.37,11.37,0,0,0,4.83,0,5.29,5.29,0,0,0,1.25-.83c.67-.53,1.92-1.53,2.9-.42A1.89,1.89,0,0,1,27,16.7a2.76,2.76,0,0,1-1.52,1.86A14.29,14.29,0,0,1,18.6,20.34Z" transform="translate(-0.34 -0.16)" style="fill:#9c0900"/><path d="M33.12,20a12.48,12.48,0,0,1-2.72-.31A3.46,3.46,0,0,1,28,17.88,1.87,1.87,0,0,1,27,18a1.39,1.39,0,0,1-1.17-1,2.58,2.58,0,0,1,1-2.45,15.17,15.17,0,0,1,1.7-1.25,7.5,7.5,0,0,1,1.18-2.23,7.78,7.78,0,0,1,4.95-3A1.74,1.74,0,0,1,36,8.8a1.8,1.8,0,0,1,.25.42c2.39-.3,3.84.07,4.33,1.1A6.42,6.42,0,0,1,39,17.73,8.12,8.12,0,0,1,33.12,20Zm2.41-7-.27.16a4.76,4.76,0,0,0-1.74,1.4,2.52,2.52,0,0,0-.14,1.79.43.43,0,0,0,.34.26c1.07.25,2.84-.93,3.4-1.67a1.53,1.53,0,0,0,.13-1.22.9.9,0,0,0-.72-.59A2.47,2.47,0,0,0,35.52,13Z" transform="translate(-0.34 -0.16)" style="fill:#9c0900"/><path d="M45.32,20.62h-.18a3.54,3.54,0,0,1-2.83-2.83c0-.05,0-.11,0-.16a1.92,1.92,0,0,1-1,.18,1.7,1.7,0,0,1-1.2-.65L40,17l-.06-.21a2.85,2.85,0,0,1-.12-.74c0-.68.49-1.29,1.7-2.11a25.56,25.56,0,0,0,2.9-2.51c.07-.09.16-.22.25-.35.44-.64.9-1.29,1.67-1.36a3,3,0,0,1,2.1.65,2.87,2.87,0,0,1,1,2,8.12,8.12,0,0,1-.16,2.2,1.29,1.29,0,0,1,.67.21,1.83,1.83,0,0,1,.36,2.64c-.13.21-.43.7-2.15,1.62l-.3.15-.26.13A2.79,2.79,0,0,1,45.32,20.62Z" transform="translate(-0.34 -0.16)" style="fill:#9c0900"/><path d="M47.73,19.07h0Z" transform="translate(-0.34 -0.16)" style="fill:#9c0900"/><path d="M47.73,19.06h0Z" transform="translate(-0.34 -0.16)" style="fill:#9c0900"/><path d="M42,16.46Z" transform="translate(-0.34 -0.16)" style="fill:#9c0900"/><path d="M47.15,15.9Z" transform="translate(-0.34 -0.16)" style="fill:#9c0900"/><path d="M55.78,20.21a9.05,9.05,0,0,1-2.39-.32,2.89,2.89,0,0,1-2.12-2,1.46,1.46,0,0,1-.29,0,1.67,1.67,0,0,1-1.27-.78L49.6,17l0-.21a2.3,2.3,0,0,1,0-1.06c.18-.61.55-1,2.42-2.32a27.7,27.7,0,0,1,5.86-3.21,4.9,4.9,0,0,1,3.77.13,1.66,1.66,0,0,1,.78,1.22,3.6,3.6,0,0,1-1.58,3.25,1.81,1.81,0,0,1,1.13,0,1.59,1.59,0,0,1,.78,2.15c-.13.47-.6,1.08-2.63,2.19A9,9,0,0,1,55.78,20.21Z" transform="translate(-0.34 -0.16)" style="fill:#9c0900"/><path d="M69.54,19.88a9.29,9.29,0,0,1-4.23-.94,3.64,3.64,0,0,1-1.38-1.39,1.74,1.74,0,0,1-1.07.07,1.64,1.64,0,0,1-1-.83l-.06-.11a1.8,1.8,0,0,1,.13-1.73,7.65,7.65,0,0,1,1.72-1.36l1.07-.75.48-.34.42-.65v.36a26.66,26.66,0,0,1,4.87-2.81c2.12-.84,4.07-.58,4.74.63a1.66,1.66,0,0,1,.14,1.31c-.25.79-1,1.29-2.07,1.82-.47.23-1.3.59-2.16,1s-2.06.91-2.6,1.18a1.42,1.42,0,0,0,.77.66,3.37,3.37,0,0,0,2.89-.47c.44-.31,1.48-1,2.41-.53a1.54,1.54,0,0,1,.77,1.49c0,1.58-1.54,2.24-3.13,2.94A6.79,6.79,0,0,1,69.54,19.88Z" transform="translate(-0.34 -0.16)" style="fill:#9c0900"/><path d="M89.57,16.49h0Z" transform="translate(-0.34 -0.16)" style="fill:#9c0900"/><path d="M94.17,20.27a6.07,6.07,0,0,1-1.61-.19,2.06,2.06,0,0,1-1.37-1.17A2.56,2.56,0,0,1,91,17.69a1.28,1.28,0,0,1-.69-.94c-.14-.86.45-1.57,2.74-3.28a22.34,22.34,0,0,1,7.8-3.79c1.47-.21,2.48-.06,3.07.45a1.54,1.54,0,0,1,.53,1,1.53,1.53,0,0,1-.1,1,1.85,1.85,0,0,1,.4.62,4.43,4.43,0,0,1-.17,2.91l.3-.29c.5-.5,1.55-1.55,2.72-.74a1.64,1.64,0,0,1,.76,1.29,3,3,0,0,1-1.43,2.23,7.58,7.58,0,0,1-5.05,1.75,2.57,2.57,0,0,1-2.24-1.5l-.2.18A8.47,8.47,0,0,1,94.17,20.27Z" transform="translate(-0.34 -0.16)" style="fill:#9c0900"/><path d="M78.21,20.68a3.34,3.34,0,0,1-1.33-.29,2.34,2.34,0,0,1-1.46-1.54,4.14,4.14,0,0,1,0-1l-.14,0a1.49,1.49,0,0,1-1-.81,1.56,1.56,0,0,1,.06-1.64,3.22,3.22,0,0,1,.8-.78l1-.72A15.08,15.08,0,0,1,78.3,6.41c1.84-3,4-3.8,5.11-4a3.54,3.54,0,0,1,2.68.34,2.35,2.35,0,0,1,1,1.57c.23,1.3-.41,3-1.89,5.08a24.27,24.27,0,0,1-1.75,2.15,5,5,0,0,1,.85-.22,2,2,0,0,1,1.63.36,2.77,2.77,0,0,1,.88,2.07v.12a14.41,14.41,0,0,0,.41,1.94c.13.49.27.61.27.61a3,3,0,0,0,1.08-.72,3.46,3.46,0,0,1,.88-.63,1.76,1.76,0,0,1,1.66,0,1.52,1.52,0,0,1,.73,1.22,2.32,2.32,0,0,1-1.27,2.38A8.56,8.56,0,0,1,85.93,20c-1.89-.18-3.11-2.17-3.55-3.13l-.06.07a9.18,9.18,0,0,0-.75,1.11,6.12,6.12,0,0,1-1.88,2.19A2.79,2.79,0,0,1,78.21,20.68Z" transform="translate(-0.34 -0.16)" style="fill:#9c0900"/><path d="M11.26,13.17C11.26,6,19.18,3.11,23,3.71c2.22.35,3.38,1.63,2.8,4.22,0,0-1.21,3.5-3,2.78s-.37-3-.06-3.37,1.47-2.41-.78-2.44S16,5.16,14.37,12.8a4.37,4.37,0,0,0,2.78,4.63,12.25,12.25,0,0,0,5.56,0c1.28-.47,2.44-2.09,2.91-1.56s.28,1.1-.75,1.72c-1.94,1.16-6.18,2.37-9.66,1C10.84,16.92,11.26,13.17,11.26,13.17Z" transform="translate(-0.34 -0.16)" style="fill:#ff920d"/><path d="M28.15,16.24a1.13,1.13,0,0,1-1,.66c-.5-.06-.19-.84.47-1.44a17.4,17.4,0,0,1,1.94-1.39,5,5,0,0,1,1.09-2.27,6.74,6.74,0,0,1,4-2.5c.91,0,.66,1.22.66,1.22s3.81-.72,4.28.28a5.25,5.25,0,0,1-1.41,6.13C36,19.11,32.87,19,30.65,18.55a2.21,2.21,0,0,1-1.91-2.47S28.31,16,28.15,16.24ZM35,12a6.1,6.1,0,0,0-2.47,2c-.47,1-.75,3.23,1,3.64s3.91-1.22,4.57-2.09A2.31,2.31,0,0,0,36.81,12,2.91,2.91,0,0,0,35,12Z" transform="translate(-0.34 -0.16)" style="fill:#ff920d"/><path d="M41,16.46c.38.47.94.13,1.31-.22S44.68,14.3,45,14.07s.84-.14.81.31a16.37,16.37,0,0,1-.28,2c-.12.53-.34.75-.75.81s-1.44-.09-1.37.5a2.43,2.43,0,0,0,1.78,1.81,1.62,1.62,0,0,0,1.47-.84c.06-.16.5-.34.91-.56a6.13,6.13,0,0,0,1.72-1.22c.25-.41.34-.88,0-1.09s-1.28,1-1.56,1.09-.37-.06-.19-.56a9.44,9.44,0,0,0,.72-3.81,1.66,1.66,0,0,0-1.84-1.66c-.34,0-.84.94-1.15,1.31a26.08,26.08,0,0,1-3.13,2.72c-1,.66-1.2,1-1.2,1.17A2,2,0,0,0,41,16.46Z" transform="translate(-0.34 -0.16)" style="fill:#ff920d"/><path d="M50.66,16c.06-.22.2-.48,2-1.7a27,27,0,0,1,5.56-3.06c1.38-.44,3-.33,3.08.39s-.19,1.92-2.44,3a8.83,8.83,0,0,1-3.77,1.15c-.45,0-.45.28-.45.28s-.15,1.36,1.56,1.63a5.89,5.89,0,0,0,4-1.34c.53-.41,1.08-.64,1.38-.53s.08.78.08.78-.08.41-2.08,1.5a8,8,0,0,1-5.86.67,2,2,0,0,1-1.41-2.39c0-.41,0-.56-.52,0s-.89.44-1.11.11A1.2,1.2,0,0,1,50.66,16Zm4.64-1.19A4.78,4.78,0,0,0,58.07,14c1.31-.8,1.47-1.19,1.38-1.47s-1.06-.2-2.44.72a7.58,7.58,0,0,0-1.7,1.31A.32.32,0,0,0,55.31,14.83Z" transform="translate(-0.34 -0.16)" style="fill:#ff920d"/><path d="M62.83,16.24c.21.38.54.38,1,.13a2.63,2.63,0,0,0,.73-.75,2.89,2.89,0,0,0,1.35,2.33,8.05,8.05,0,0,0,5.9.42c1.65-.73,2.44-1.15,2.46-1.94s-.65-.52-1.4,0a4.45,4.45,0,0,1-4,.58c-1.52-.65-1.92-2.13-1-2.63s3.88-1.72,4.94-2.25,1.75-1,1.44-1.56-1.65-.79-3.33-.12a30.9,30.9,0,0,0-5.54,3.31,22.24,22.24,0,0,0-2.52,1.85C62.66,15.84,62.83,16.24,62.83,16.24Z" transform="translate(-0.34 -0.16)" style="fill:#ff920d"/><path d="M75.22,16a2.22,2.22,0,0,1,.5-.48l1.48-1.08A13.66,13.66,0,0,1,79.26,7c2.33-3.75,5.33-3.94,6.19-3.35s.85,2.21-1.19,5.06a29.63,29.63,0,0,1-4.92,5.15S79,16,78.87,17.11s.38.46.38.46.67-1.1,1.73-2.65a5.55,5.55,0,0,1,3.5-2.5c1.13-.19,1.15.92,1.21,1.54a15.21,15.21,0,0,0,.44,2.1c.19.73.58,1.56,1.54,1.44s1.79-1.23,2.23-1.42.77-.15.81.29A1.2,1.2,0,0,1,90,17.67a7.54,7.54,0,0,1-4,1.23c-1.52-.15-2.6-2.33-2.73-2.73s-.31-1.25-.52-1.29-.48.33-1.33,1.35-1.31,2.42-2.35,3.06a1.93,1.93,0,0,1-2.56-.67,13.65,13.65,0,0,1,.15-2.42c0-.23-.27,0-.58.31s-.75.33-.87,0A.43.43,0,0,1,75.22,16ZM80,11.83A11.12,11.12,0,0,0,83.71,8c1.59-2.48,1.58-2.87,1-3.17s-1.25.22-2.86,2.66a13,13,0,0,0-2,4C79.82,11.77,80,11.83,80,11.83Z" transform="translate(-0.34 -0.16)" style="fill:#ff920d"/><path d="M103.34,11.3c0-.56-1-.69-2.31-.5a21.38,21.38,0,0,0-7.28,3.58c-2.56,1.92-2.44,2.23-2.16,2.33s1-.28,1-.28-1.12,2.16.31,2.56a7.62,7.62,0,0,0,5.81-1.25c1.34-1.22,1.59-1.66,1.87-1.53s0,1,0,1A1.43,1.43,0,0,0,102,18.77a6.41,6.41,0,0,0,4.22-1.5c.91-.75,1.34-1.31.75-1.72s-1.28.78-1.94,1.19-1.31.84-1.87.59-.06-1.22.28-1.88.66-2.41-.06-2.66a3,3,0,0,0-2.62,1A28.27,28.27,0,0,1,96.81,17c-1.06.56-2.47.22-2-.69A6.32,6.32,0,0,1,97.24,14a18.47,18.47,0,0,1,4.12-1.91,11.41,11.41,0,0,1,1.91-.47C103.44,11.65,103.34,11.3,103.34,11.3Z" transform="translate(-0.34 -0.16)" style="fill:#ff920d"/><path d="M36.8,8.08A3,3,0,0,1,36.26,8a1.71,1.71,0,0,1-1.21-.75v0a2.13,2.13,0,0,1,.66-2.73A7.85,7.85,0,0,1,38.84,3a2.35,2.35,0,0,1,1.72.28,1,1,0,0,1,.4.7,1.29,1.29,0,0,1,0,.41,1.26,1.26,0,0,1,.33.59,1.13,1.13,0,0,1,.86.16,1.06,1.06,0,0,1,.3,1.39,3,3,0,0,1-2.21,1.45,2,2,0,0,1-1.78-.44A2.65,2.65,0,0,1,36.8,8.08Z" transform="translate(-0.34 -0.16)" style="fill:#142e17"/><path d="M30.11,8.1h-.06a2,2,0,0,1-1.67-.63,1.53,1.53,0,0,1-.14-1.41c.17-.54.36-1.45.53-2.26.07-.32.13-.63.19-.9C29.42.78,30,.36,30.47.23a1.86,1.86,0,0,1,1.07,0l.1,0a1.45,1.45,0,0,1,1,.6,1.81,1.81,0,0,1,0,1.44,21.3,21.3,0,0,1-1,2.51l-.2.47c.42-.08.93-.22,1.25-.31L33,4.92a1.27,1.27,0,0,1,1.48.72A1.34,1.34,0,0,1,34,7.33,10.07,10.07,0,0,1,30.11,8.1Z" transform="translate(-0.34 -0.16)" style="fill:#142e17"/><path d="M31.31,1.06c.63.14.86.09.61,1s-1.12,2.75-1.33,3.31,0,.81.63.78a11.82,11.82,0,0,0,2-.45.47.47,0,0,1,.27.89,9.7,9.7,0,0,1-3.45.63c-.78,0-1.27-.14-1-.94s.52-2.23.73-3.23.55-1.93.91-2A1,1,0,0,1,31.31,1.06Z" transform="translate(-0.34 -0.16)" style="fill:#ff920d"/><path d="M35.79,6.85c-.28-.5-.17-1.09.48-1.67A7.16,7.16,0,0,1,39,3.8c.69-.11,1.13,0,1.14.22a.4.4,0,0,1-.41.45,5.33,5.33,0,0,0-2,.72c-.34.3-1.42,1-.77,1.16s1.55-.82,1.8-1,.95-.88,1.26-.61.49.35.31.61-.73,1.24-.22,1.18a1.92,1.92,0,0,0,1.11-.61c.19-.2.61-.14.42.23a2.2,2.2,0,0,1-1.55,1c-.7.08-1.12-.06-1.17-.37s-.27-.41-.69-.14a2.16,2.16,0,0,1-1.84.61A.9.9,0,0,1,35.79,6.85Z" transform="translate(-0.34 -0.16)" style="fill:#ff920d"/><path d="M38.89,21.24H34.1a1,1,0,0,0-.93.57l-1.38,2.93h-.28a1,1,0,0,0-.6,1.88l-.09.2a1.07,1.07,0,0,0,.06,1,1,1,0,0,0,.87.47h4.37a1,1,0,0,0,1-1,1.07,1.07,0,0,0-.11-.47h.1a1,1,0,0,0,0-2.07H34l.06-.17a10.21,10.21,0,0,1,.56-1.25,10,10,0,0,0,1,0h3.19a1,1,0,0,0,0-2.07Z" transform="translate(-0.34 -0.16)" style="fill:#142e17"/><path d="M83.45,21.24H78.66a1,1,0,0,0-.93.57l-1.38,2.93h-.28a1,1,0,0,0-1,1,1,1,0,0,0,.42.84l-.09.19a1.07,1.07,0,0,0,.06,1,1,1,0,0,0,.87.47h4.38a1,1,0,0,0,1-1,1.07,1.07,0,0,0-.11-.47h.1a1,1,0,0,0,.78-.35,1,1,0,0,0,.25-.68,1,1,0,0,0-1-1H78.6l.06-.16a10.27,10.27,0,0,1,.56-1.26,10,10,0,0,0,1,0h3.19a1,1,0,0,0,.78-.35,1,1,0,0,0,.25-.68A1,1,0,0,0,83.45,21.24Z" transform="translate(-0.34 -0.16)" style="fill:#142e17"/><path d="M50.84,21.32a1,1,0,0,0-1,0l-3.31,2L45.2,21.46a1,1,0,0,0-.93-.46,1.06,1.06,0,0,0-.88.59,1,1,0,0,0,.08,1l1.28,1.9-3.27,2a1,1,0,0,0-.49.9,1.06,1.06,0,0,0,.55.9,1,1,0,0,0,1,0l3.35-2.07,1.28,1.89a1,1,0,0,0,.86.46h.07A1.06,1.06,0,0,0,49,28a1,1,0,0,0-.08-1l-1.25-1.85,3.23-2a1,1,0,0,0,.49-.9A1.06,1.06,0,0,0,50.84,21.32Z" transform="translate(-0.34 -0.16)" style="fill:#142e17"/><path d="M56.66,21.13c-.29,0-.55,0-.77,0a1,1,0,0,0-.93.58l-2.31,5.09a1.06,1.06,0,0,0,.53,1.4,1,1,0,0,0,.42.09,1,1,0,0,0,.9-.59l.37-.82a8.73,8.73,0,0,0,4.32-.57c1.22-.62,2.68-2.27,1.92-3.85S58.12,21,56.66,21.13Zm.66,3.64a10.41,10.41,0,0,1-1.5.1v0l.27-.58c.16-.34.33-.68.47-1,.27,0,.56,0,.85,0a3.39,3.39,0,0,1,1.65.1.58.58,0,0,1,.19.19C59.28,23.81,58.08,24.66,57.32,24.77Z" transform="translate(-0.34 -0.16)" style="fill:#142e17"/><path d="M67.8,21.13c-.3,0-.57,0-.79,0a1,1,0,0,0-.93.58l-2.31,5.09a1.06,1.06,0,0,0,.53,1.4,1,1,0,0,0,.42.09,1,1,0,0,0,.9-.59l.63-1.38.51,0,2.89,1.78a1,1,0,0,0,1,0,1.06,1.06,0,0,0,.55-.9,1,1,0,0,0-.49-.9l-.55-.34.41-.17A3.13,3.13,0,0,0,72.15,24a2.22,2.22,0,0,0-.21-1.8C71.11,20.87,69.2,21,67.8,21.13Zm2.12,2.7c-.27.28-.6.35-1.25.41-.44,0-.92.06-1.47.06l.47-1c.32,0,.67,0,1,0a4.26,4.26,0,0,1,1.35,0c.09,0,.1.05.1.07A.64.64,0,0,1,69.92,23.83Z" transform="translate(-0.34 -0.16)" style="fill:#142e17"/><path d="M90.51,21.13a3.41,3.41,0,0,0-2.93,2.1,1.77,1.77,0,0,0,.15,1.49,2.63,2.63,0,0,0,1.84,1.07,5.3,5.3,0,0,0,.79.05,2.59,2.59,0,0,1,.76.08l.1.05a2.64,2.64,0,0,1-3.07,0,1,1,0,0,0-1-.21,1.06,1.06,0,0,0-.7.79,1,1,0,0,0,.32.95,4.42,4.42,0,0,0,2.93,1,5.09,5.09,0,0,0,.75-.06,4.31,4.31,0,0,0,2.71-1.52,1.93,1.93,0,0,0,.3-1.56c-.34-1.44-1.85-1.49-2.75-1.52a3.5,3.5,0,0,1-.89-.1,7.53,7.53,0,0,1,2-.59c1,0,1.45.23,1.6.43a1,1,0,0,0,1,.42,1.05,1.05,0,0,0,.85-.62,1,1,0,0,0-.12-1C94.24,21.21,92.14,20.86,90.51,21.13Z" transform="translate(-0.34 -0.16)" style="fill:#142e17"/><path d="M106.07,22.42c-.89-1.21-3-1.56-4.62-1.29a3.41,3.41,0,0,0-2.93,2.1,1.77,1.77,0,0,0,.15,1.49,2.63,2.63,0,0,0,1.84,1.07,5.31,5.31,0,0,0,.79.05,2.59,2.59,0,0,1,.76.08l.1.05a2.64,2.64,0,0,1-3.07,0,1,1,0,0,0-1.48.1,1,1,0,0,0,.08,1.43,4.43,4.43,0,0,0,2.93,1,5.09,5.09,0,0,0,.75-.06,4.31,4.31,0,0,0,2.71-1.52,1.93,1.93,0,0,0,.3-1.56c-.34-1.44-1.85-1.49-2.75-1.52a3.5,3.5,0,0,1-.89-.1,7.51,7.51,0,0,1,2-.59c1,0,1.45.23,1.6.43a1,1,0,0,0,1,.42,1.05,1.05,0,0,0,.85-.62A1,1,0,0,0,106.07,22.42Z" transform="translate(-0.34 -0.16)" style="fill:#142e17"/><path d="M38.89,22H34.1a.25.25,0,0,0-.22.13l-1.59,3.37h-.77a.26.26,0,0,0,0,.51H32l-.53,1.12a.26.26,0,0,0,.22.38h4.37a.26.26,0,0,0,0-.51h-4l.47-1h4.53a.26.26,0,0,0,0-.51H32.85l.17-.37a14.58,14.58,0,0,1,1.24-2.64h.3a15.62,15.62,0,0,0,1.66,0h2.67A.26.26,0,0,0,38.89,22Z" transform="translate(-0.34 -0.16)" style="fill:#388634"/><path d="M83.45,22H78.66a.25.25,0,0,0-.22.13l-1.59,3.37h-.77a.26.26,0,0,0,0,.51h.53l-.53,1.12a.26.26,0,0,0,.22.38h4.38a.26.26,0,0,0,0-.51h-4l.47-1H81.7a.26.26,0,0,0,0-.51H77.41l.17-.37a14.58,14.58,0,0,1,1.24-2.64h.3a15.62,15.62,0,0,0,1.66,0h2.67A.26.26,0,0,0,83.45,22Z" transform="translate(-0.34 -0.16)" style="fill:#388634"/><path d="M50.24,22l-4,2.44-1.73-2.56c-.18-.27-.62,0-.44.26l1.74,2.57-4,2.45c-.28.17,0,.61.26.44l4-2.46,1.7,2.51c.18.27.62,0,.44-.26l-1.7-2.52,3.92-2.42C50.78,22.28,50.52,21.84,50.24,22Z" transform="translate(-0.34 -0.16)" style="fill:#388634"/><path d="M55.9,22a.25.25,0,0,0-.22.13l-2.31,5.09c-.13.3.3.56.44.26l.59-1.31a9.11,9.11,0,0,0,4.46-.46c.9-.45,2.09-1.73,1.56-2.82C59.74,21.41,57.08,22,55.9,22Zm1.54,3.59a14.74,14.74,0,0,1-2.81.08l.5-1.09c.27-.59.59-1.18.81-1.79,0-.06.06-.16.1-.25a1.9,1.9,0,0,1,.35,0c.9.05,2.37-.34,3.14.19C61.18,23.8,58.53,25.38,57.44,25.54Z" transform="translate(-0.34 -0.16)" style="fill:#388634"/><path d="M67,22a.25.25,0,0,0-.22.13l-2.31,5.09c-.13.3.3.56.44.26l.85-1.87,1.24.07,3.06,1.89c.28.17.54-.27.26-.44L68,25.64a5.45,5.45,0,0,0,2.25-.44,2,2,0,0,0,1-2.55C70.53,21.43,68.16,22,67,22Zm3.47,2.41a2.48,2.48,0,0,1-1.74.65c-.56.05-1.12.07-1.68.07H67l-1,0,.18-.4.82-1.8a3.82,3.82,0,0,1,.18-.4h.12c.93.12,2.1-.22,2.94,0S71,23.77,70.49,24.36Z" transform="translate(-0.34 -0.16)" style="fill:#388634"/><path d="M88.32,23.46c-.3,1,.57,1.42,1.39,1.56a7.28,7.28,0,0,1,1.75.2c1.63.8-.19,1.73-.87,1.9a3.42,3.42,0,0,1-3-.55c-.24-.22-.61.14-.36.36a3.87,3.87,0,0,0,3,.76c.91-.14,2.66-.9,2.36-2.14s-2.39-.69-3.23-1.1c-2.31-1.13,1.89-2.08,2.39-2.07a2.88,2.88,0,0,1,2.22.75c.19.26.64,0,.44-.26C93.37,21.34,89,21.43,88.32,23.46Z" transform="translate(-0.34 -0.16)" style="fill:#388634"/><path d="M105.45,22.88c-1.13-1.54-5.55-1.45-6.18.58-.3,1,.57,1.42,1.39,1.56a7.28,7.28,0,0,1,1.75.2c1.63.8-.19,1.73-.87,1.9a3.42,3.42,0,0,1-3-.55c-.24-.22-.61.14-.36.36a3.87,3.87,0,0,0,3,.76c.91-.14,2.66-.9,2.36-2.14s-2.39-.69-3.23-1.1c-2.31-1.13,1.89-2.08,2.39-2.07a2.88,2.88,0,0,1,2.22.75C105.2,23.4,105.64,23.14,105.45,22.88Z" transform="translate(-0.34 -0.16)" style="fill:#388634"/><path d="M30,22H10.37a.26.26,0,0,0,0,.51H30A.26.26,0,0,0,30,22Z" transform="translate(-0.34 -0.16)" style="fill:#898e8a"/><path d="M28.39,25.17H5.81a.26.26,0,0,0,0,.51H28.39a.26.26,0,0,0,0-.51Z" transform="translate(-0.34 -0.16)" style="fill:#898e8a"/><path d="M28.14,23.61H2.57a.26.26,0,0,0,0,.51H28.14a.26.26,0,0,0,0-.51Z" transform="translate(-0.34 -0.16)" style="fill:#898e8a"/><path d="M28.14,27.52H.59a.26.26,0,0,0,0,.51H28.14a.26.26,0,0,0,0-.51Z" transform="translate(-0.34 -0.16)" style="fill:#898e8a"/></svg>